<?xml version="1.0" encoding="utf-8"?>
<!-- Generator: Adobe Illustrator 18.1.1, SVG Export Plug-In . SVG Version: 6.00 Build 0)  -->
<svg version="1.1" id="Ebene_1" xmlns="http://www.w3.org/2000/svg" xmlns:xlink="http://www.w3.org/1999/xlink" x="0px" y="0px"
	 viewBox="0 0 377.7 67.3" enable-background="new 0 0 377.7 67.3" xml:space="preserve">
<g>
	<polygon fill="#1D1D1B" points="255,43.6 238,43.6 253.8,0 270.7,0 255,43.6 	"/>
	<polygon fill="#FFCC00" points="255.6,3.7 266.3,3.7 264.1,9.7 253.5,9.7 255.6,3.7 	"/>
	<polygon fill="#FFCC00" points="263.2,12.2 255.4,33.6 244.7,33.6 252.5,12.2 263.2,12.2 	"/>
	<path fill="#1D1D1B" d="M41.3,43.6L57,0H86L70.3,43.6H41.3L41.3,43.6z M61.9,67.1H32.8l4.9-13.6h29.1L61.9,67.1L61.9,67.1z"/>
	<polygon fill="#FFCC00" points="56.1,12.2 78,12.2 72.9,26.3 64.3,26.3 67.3,18 64.6,18 58.9,33.6 48.4,33.6 56.1,12.2 	"/>
	<polygon fill="#1D1D1B" points="201.5,43.6 172.5,43.6 188.2,0 217.2,0 201.5,43.6 	"/>
	<polygon fill="#FFCC00" points="186.5,12.2 210.1,12.2 202.3,33.6 191.5,33.6 197.1,18 194.4,18 188.8,33.6 178.8,33.6 186.5,12.2 
			"/>
	<polygon fill="#1D1D1B" points="234.3,43.6 205.3,43.6 221,0 250,0 234.3,43.6 	"/>
	<polygon fill="#FFCC00" points="223.4,3.1 234.1,3.1 230.9,12.2 242.1,12.2 234.3,33.6 224.5,33.6 230.2,17.9 227.5,17.9 
		221.8,33.6 212.4,33.6 223.4,3.1 	"/>
	<polygon fill="#1D1D1B" points="362,43.6 332.9,43.6 348.7,0 377.7,0 362,43.6 	"/>
	<polygon fill="#FFCC00" points="347.9,12.2 369.9,12.2 364.8,26.3 356.1,26.3 359.1,17.9 356.4,17.9 350.8,33.6 340.2,33.6 
		347.9,12.2 	"/>
	<path fill="#1D1D1B" d="M8.5,43.6L24.2,0h29.1L37.5,43.6H8.5L8.5,43.6z M29.1,67.1H0l4.9-13.6H34L29.1,67.1L29.1,67.1z"/>
	<path fill="#FFCC00" d="M30,18.6l-3.5,9.8h2.7l3.5-9.8H30L30,18.6z M24.3,12.2h20.1l-10,27.7H14.3l1.6-4.4h12.2l0.9-2.6H16.8
		L24.3,12.2L24.3,12.2z"/>
	<path fill="#1D1D1B" d="M74.1,43.6L89.8,0h29.1l-15.7,43.6H74.1L74.1,43.6z M94.7,67.1H65.6l4.9-13.6h29.1L94.7,67.1L94.7,67.1z"/>
	<path fill-rule="evenodd" clip-rule="evenodd" fill="#FFCC00" d="M92.7,26.4l-1.1,3h2.7l1.1-3H92.7L92.7,26.4z M89.1,12.2H111
		l-7.7,21.4H81.4l4.4-12.3h11.9l0.9-2.6H86.7L89.1,12.2L89.1,12.2z"/>
	<path fill="#1D1D1B" d="M106.9,43.6L122.6,0h29.1l-15.7,43.6H106.9L106.9,43.6z M127.5,67.1H98.4l4.9-13.6h29.1L127.5,67.1
		L127.5,67.1z"/>
	<polygon fill="#FFCC00" points="121.5,12.2 144.2,12.2 142.4,17.1 129.2,17.1 128.3,19.6 141.5,19.6 136.4,33.6 113.8,33.6 
		116.3,26.7 130.3,26.7 131.2,24.1 117.2,24.1 121.5,12.2 	"/>
	<polygon fill="#1D1D1B" points="168.7,43.6 139.7,43.6 155.4,0 184.5,0 168.7,43.6 	"/>
	<path fill-rule="evenodd" clip-rule="evenodd" fill="#FFCC00" d="M162.7,18.2l-1.1,3.1h2.7l1.1-3.1H162.7L162.7,18.2z M154.5,12.2
		h21.9l-4.4,12.3h-11.7l-0.9,2.6h11.7l-2.4,6.6h-21.9L154.5,12.2L154.5,12.2z"/>
	<polygon fill="#1D1D1B" points="329.2,43.6 300.1,43.6 315.9,0 344.9,0 329.2,43.6 	"/>
	<path fill-rule="evenodd" clip-rule="evenodd" fill="#FFCC00" d="M323.2,18.2l-1.1,3.1h2.7l1.1-3.1H323.2L323.2,18.2z M315.1,12.2
		H337l-4.4,12.3h-11.7l-0.9,2.6h11.7l-2.4,6.5h-21.9L315.1,12.2L315.1,12.2z"/>
	<polygon fill="#1D1D1B" points="296.4,43.6 279.4,43.6 295.2,0 312.1,0 296.4,43.6 	"/>
	<polygon fill="#FFCC00" points="296.9,3.7 307.6,3.7 296.7,33.6 286,33.6 296.9,3.7 	"/>
	<polygon fill="#1D1D1B" points="275.7,43.6 258.7,43.6 274.5,0 291.4,0 275.7,43.6 	"/>
	<polygon fill="#FFCC00" points="276.3,3.7 287,3.7 276.1,33.6 265.4,33.6 276.3,3.7 	"/>
	<path fill="#1D1D1B" d="M139.4,67.1h2.5v-4.8l1.2-1.5l3.8,6.2h2.9l-5-7.8l4.7-5.8h-3l-3.6,4.8c-0.3,0.5-0.7,0.9-1,1.5h-0.1v-6.3
		h-2.5V67.1L139.4,67.1z"/>
	<path fill-rule="evenodd" clip-rule="evenodd" fill="#1D1D1B" d="M158.5,53.2c-3.8,0-6.5,2.9-6.5,7.1c0,4,2.4,6.9,6.3,6.9
		c3.7,0,6.5-2.6,6.5-7.2C164.8,56.2,162.4,53.2,158.5,53.2L158.5,53.2z M158.4,55.2c2.5,0,3.8,2.4,3.8,5c0,2.8-1.4,5.1-3.8,5.1
		c-2.4,0-3.8-2.2-3.8-5C154.6,57.5,155.9,55.2,158.4,55.2L158.4,55.2z"/>
	<path fill="#1D1D1B" d="M180.7,67.1h2.4l-0.8-13.6h-3.2l-1.9,5.5c-0.5,1.6-1,3.3-1.4,4.7h-0.1c-0.3-1.5-0.8-3.1-1.3-4.7l-1.8-5.5
		h-3.3l-0.9,13.6h2.3l0.3-5.5c0.1-1.9,0.2-4,0.2-5.8h0c0.4,1.7,0.8,3.6,1.4,5.3l1.8,5.8h1.9l2-5.9c0.6-1.7,1.2-3.6,1.6-5.2h0.1
		c0,1.8,0.1,4,0.2,5.7L180.7,67.1L180.7,67.1z"/>
	<path fill-rule="evenodd" clip-rule="evenodd" fill="#1D1D1B" d="M187.6,67.1h2.5v-5.1c0.3,0.1,0.7,0.1,1.2,0.1
		c1.8,0,3.3-0.5,4.3-1.5c0.7-0.7,1.2-1.8,1.2-3.1c0-1.3-0.5-2.3-1.3-3c-0.9-0.7-2.2-1.1-4-1.1c-1.7,0-2.9,0.1-3.8,0.3V67.1
		L187.6,67.1z M190.1,55.4c0.3-0.1,0.7-0.1,1.4-0.1c1.7,0,2.8,0.8,2.8,2.3c0,1.6-1.1,2.5-3,2.5c-0.5,0-0.9,0-1.2-0.1V55.4
		L190.1,55.4z"/>
	<polygon fill="#1D1D1B" points="208.6,59 203.4,59 203.4,55.5 208.9,55.5 208.9,53.5 200.9,53.5 200.9,67.1 209.2,67.1 209.2,65 
		203.4,65 203.4,61 208.6,61 208.6,59 	"/>
	<polygon fill="#1D1D1B" points="216.2,67.1 218.7,67.1 218.7,55.5 222.6,55.5 222.6,53.5 212.3,53.5 212.3,55.5 216.2,55.5 
		216.2,67.1 	"/>
	<polygon fill="#1D1D1B" points="233.8,59 228.7,59 228.7,55.5 234.1,55.5 234.1,53.5 226.2,53.5 226.2,67.1 234.4,67.1 234.4,65 
		228.7,65 228.7,61 233.8,61 233.8,59 	"/>
	<path fill-rule="evenodd" clip-rule="evenodd" fill="#1D1D1B" d="M240.9,67.1v-4.9c0-2.2,0-4-0.1-5.8l0.1,0
		c0.7,1.5,1.6,3.2,2.4,4.7l3.6,6h2.6V53.5h-2.3v4.7c0,2.1,0,3.8,0.2,5.7h0c-0.6-1.5-1.4-3-2.3-4.6l-3.5-5.8h-2.8v13.6H240.9
		L240.9,67.1z"/>
	<polygon fill="#1D1D1B" points="253.4,67.1 263.7,67.1 263.7,65 256.7,65 256.7,65 263.6,54.9 263.6,53.5 254,53.5 254,55.5 
		260.3,55.5 260.3,55.6 253.4,65.7 253.4,67.1 	"/>
	<polygon fill="#1D1D1B" points="273.9,53.5 273.9,67.1 276.4,67.1 276.4,53.5 273.9,53.5 	"/>
	<path fill="#1D1D1B" d="M293,67.1h2.4l-0.8-13.6h-3.2l-1.9,5.5c-0.5,1.6-1,3.3-1.4,4.7h-0.1c-0.3-1.5-0.8-3.1-1.3-4.7l-1.8-5.5
		h-3.3l-0.9,13.6h2.3l0.3-5.5c0.1-1.9,0.2-4,0.2-5.8h0c0.4,1.7,0.8,3.6,1.4,5.3l1.8,5.8h1.9l2-5.9c0.6-1.7,1.2-3.6,1.6-5.2h0.1
		c0,1.8,0.1,4,0.2,5.7L293,67.1L293,67.1z"/>
	<path fill-rule="evenodd" clip-rule="evenodd" fill="#1D1D1B" d="M306.2,67c0.6,0.1,1.7,0.2,3,0.2c2.5,0,4.1-0.4,5.1-1.3
		c0.8-0.7,1.3-1.6,1.3-2.8c0-1.9-1.3-3-2.7-3.4v-0.1c1.5-0.5,2.3-1.7,2.3-2.9c0-1.2-0.6-2.1-1.4-2.6c-0.9-0.6-2.1-0.9-3.9-0.9
		c-1.4,0-2.8,0.1-3.6,0.3V67L306.2,67z M308.7,55.3c0.3-0.1,0.7-0.1,1.4-0.1c1.6,0,2.5,0.6,2.5,1.9c0,1.2-0.9,2-2.7,2h-1.3V55.3
		L308.7,55.3z M308.7,60.8h1.2c1.7,0,3.1,0.6,3.1,2.2c0,1.7-1.4,2.3-3,2.3c-0.6,0-1,0-1.3-0.1V60.8L308.7,60.8z"/>
	<path fill-rule="evenodd" clip-rule="evenodd" fill="#1D1D1B" d="M319.8,53.5v7.8c0,4.3,2,6,5.2,6c3.3,0,5.4-1.9,5.4-6.1v-7.8H328
		v7.9c0,2.7-1.1,3.9-2.9,3.9c-1.7,0-2.8-1.2-2.8-3.9v-7.9H319.8L319.8,53.5z M323.2,52.6c0.7,0,1.2-0.6,1.2-1.2
		c0-0.7-0.5-1.2-1.2-1.2c-0.7,0-1.2,0.5-1.2,1.2C322,52.1,322.5,52.6,323.2,52.6L323.2,52.6z M327.2,52.6c0.7,0,1.2-0.6,1.2-1.2
		c0-0.7-0.5-1.2-1.2-1.2c-0.7,0-1.2,0.5-1.2,1.2C326,52.1,326.5,52.6,327.2,52.6L327.2,52.6z"/>
	<path fill-rule="evenodd" clip-rule="evenodd" fill="#1D1D1B" d="M335.3,67.1h2.5v-5.6h1.3c1.4,0,2,0.6,2.4,2.4
		c0.4,1.7,0.7,2.8,0.9,3.2h2.5c-0.3-0.5-0.6-2.1-1.1-3.8c-0.3-1.3-0.9-2.3-1.9-2.6v-0.1c1.3-0.4,2.5-1.6,2.5-3.4
		c0-1.2-0.4-2.1-1.2-2.7c-0.9-0.8-2.2-1.1-4.2-1.1c-1.4,0-2.8,0.1-3.8,0.3V67.1L335.3,67.1z M337.8,55.4c0.2-0.1,0.7-0.1,1.5-0.1
		c1.6,0,2.6,0.7,2.6,2.2c0,1.4-1,2.2-2.7,2.2h-1.5V55.4L337.8,55.4z"/>
	<path fill-rule="evenodd" clip-rule="evenodd" fill="#1D1D1B" d="M354.6,53.2c-3.8,0-6.5,2.9-6.5,7.1c0,4,2.4,6.9,6.3,6.9
		c3.7,0,6.5-2.6,6.5-7.2C360.9,56.2,358.6,53.2,354.6,53.2L354.6,53.2z M354.5,55.2c2.5,0,3.8,2.4,3.8,5c0,2.8-1.4,5.1-3.8,5.1
		c-2.4,0-3.8-2.2-3.8-5C350.8,57.5,352.1,55.2,354.5,55.2L354.5,55.2z"/>
</g>
</svg>
